<?xml version="1.0" encoding="UTF-8"?>
<!DOCTYPE svg PUBLIC "-//W3C//DTD SVG 1.1//EN" "http://www.w3.org/Graphics/SVG/1.1/DTD/svg11.dtd">
<!-- Creator: CorelDRAW 2020 (64-Bit) -->
<svg xmlns="http://www.w3.org/2000/svg" xml:space="preserve" width="297mm" height="100mm" version="1.1" style="shape-rendering:geometricPrecision; text-rendering:geometricPrecision; image-rendering:optimizeQuality; fill-rule:evenodd; clip-rule:evenodd"
viewBox="0 0 29700 10000"
 xmlns:xlink="http://www.w3.org/1999/xlink"
 xmlns:xodm="http://www.corel.com/coreldraw/odm/2003">
 <defs>
  <style type="text/css">
   <![CDATA[
    .fil0 {fill:#FEFEFE}
    .fil1 {fill:#FED100}
   ]]>
  </style>
 </defs>
 <g id="Layer_x0020_1">
  <metadata id="CorelCorpID_0Corel-Layer"/>
  <g id="_3022522351488">
   <path class="fil0" d="M2930.91 572.94l0 7913.31 2067.62 0 0 -3108.98 2258.79 0 0 -1735.6c0,-11.59 -3.5,-15.09 -15.09,-15.09l-2243.7 0 0 -1318.05 2490.21 0 0 -1735.59c0,-11.6 -3.5,-15.1 -15.1,-15.1l-4527.64 0c-11.59,0 -15.09,3.5 -15.09,15.1z"/>
   <path class="fil1" d="M12086.81 4215.17l950.8 0 0 -2223.57c26.41,20.49 153.73,194.07 189.61,238l81.36 104.78c9.45,12.69 16.86,21.72 26.54,33.83l54.59 71.17c9.81,12.83 18.14,22.24 28.8,36.61l107.78 138.72c100.78,135.28 223.68,282.13 325.6,418.94l296.82 382.33c9.68,12.11 17.09,21.14 26.54,33.83 18.09,24.28 36.41,46.76 55.34,70.43l459.22 592.19c10.86,13.91 18.52,22.91 28.76,36.65l39.18 51.37c6.01,7.61 7.24,14.72 20.49,14.72l940.75 0 0 -3637.2 -935.72 0c-21.91,0 -15.49,26.95 -15.18,50.21 4.59,340.03 0.09,710.47 0.09,1051.51 0,373.95 0,747.9 0,1121.85 -18.82,-12.6 -39.97,-47.74 -54.64,-66.09 -87.44,-109.33 -184.68,-242.27 -271.2,-347.58l-731.3 -938.9c-10.23,-12.79 -17.63,-24.12 -28.33,-37.07l-325.96 -418.59c-19.09,-25.38 -35.86,-45.31 -55.41,-70.35l-162.42 -209.86c-12.41,-15.51 -95.48,-135.13 -116.4,-135.13l-935.71 0 0 3637.2z"/>
   <path class="fil0" d="M23119.17 6478.99l-110.68 0 0 -900.49c200.17,0 392.96,-0.74 556.4,97.59 135.76,81.68 183.12,206.64 183.12,370.26 0,82.65 -24.06,154.94 -55.04,206.57 -106.43,177.32 -350.62,226.07 -573.8,226.07zm-1061.48 2007.26l950.8 0 0 -1393.51c14.69,9.84 21.18,24.44 30.42,40.01 69.49,117 175.28,268.52 249.18,389.72l389.43 611.68c38.35,57.6 73.68,115.81 111.7,175.06 13.33,20.77 104.32,156.87 109.71,177.04l1182.21 0 -1136.94 -1489.09c34.92,-0.78 137.98,-32.52 171.69,-44.64 153.72,-55.26 287.56,-151.37 387.38,-276.67 32.63,-40.95 59.92,-81.51 87.79,-128.53 82.83,-139.75 142.96,-343.37 142.96,-521.09 0,-224.01 -12.3,-406.97 -107.26,-597.04 -206.64,-413.66 -665.53,-580.15 -1175.57,-580.15l-1393.5 0 0 3637.21z"/>
   <path class="fil0" d="M9848.14 5975.92l384.58 1151.29 -776.97 0.75c12.19,-52.35 171.21,-511.11 193.06,-576.64l145.89 -432.64c7.29,-21.85 35.99,-129.97 53.44,-142.76zm-1911.67 2510.33l1006.14 0 61.09 -155.24c20.55,-51.4 43.31,-103.65 62.8,-158.55 18.9,-53.25 41.55,-104.79 61.53,-154.79 10.32,-25.83 59.55,-141.74 61.09,-160.26l1302.95 0 231.42 628.84 1011.17 0c-1.52,-18.29 -70.75,-195.57 -83.38,-228.53 -29.75,-77.65 -55.75,-148.66 -85.52,-226.38l-1179.33 -3131.99c-6.46,-16.44 -11.4,-50.31 -30.19,-50.31l-1011.17 0c-18.52,0 -39.68,74.09 -51.06,104.9l-131.46 341.42c-118.07,293.59 -232.76,610.03 -349.24,908.44l-526.81 1369.77c-58.36,153.43 -118.01,300.66 -174.71,454.13l-175.32 458.55z"/>
   <path class="fil1" d="M21936.95 1689.75c0,359.36 60.02,592.12 351.14,785.8 313.04,208.25 609.98,223.53 934.6,358.29l119.89 66.26 74.26 61.56c70.71,84.5 74.6,114.8 74.6,217.19 0,187.59 -185.69,295.19 -355.61,323.53 -196.07,32.7 -409.67,-35.18 -575.11,-117.24 -94.4,-46.82 -240.78,-147.7 -318.02,-215.23 -13.29,-11.63 -30.68,-27.32 -44.15,-36.34 -16.91,31.94 -33.25,63 -50.25,95.65l-125.76 236.44c-9.11,17.5 -17.01,28.51 -26.92,48.55 -56.17,113.62 -142.8,267.3 -204.56,384.03 110.35,73.89 150.76,94.86 256.34,156.17 29.17,16.94 58.57,33.79 92.9,47.96 33.84,13.97 61.47,28.06 93.59,42.24 32,14.13 68.97,27.58 101.21,39.65 65.33,24.47 142.91,48.07 211.56,65.13 525.46,130.59 1112.61,80.04 1539.99,-264.05 50.99,-41.05 99.41,-85.86 139.32,-137.37 192.21,-248.08 256.52,-529.69 256.52,-855.26 0,-231.63 -61.3,-454.18 -212.48,-617.58 -102.09,-110.34 -252.88,-201.21 -387.92,-266.08 -259.71,-124.77 -674.04,-197.41 -811.09,-300.7 -48.33,-36.42 -107.22,-88.09 -130.25,-146.44 -32.17,-81.51 -15.81,-165.23 28.82,-227.39 88.53,-123.3 265.47,-165.99 432.17,-152.64 216.83,17.37 364,93.44 524.54,214.5 12.56,9.47 16.99,14.97 27.99,22.33l332.06 -643.89c11.25,-22.69 39.92,-72.8 45.24,-95.63 -23.66,-5.51 -36.79,-17.65 -56.99,-28.53 -299.19,-161.14 -754.49,-268.28 -1090.02,-268.28 -335.86,0 -638.67,99.11 -871.51,315.74 -10.27,9.56 -12.29,9.27 -22.47,17.77 -27.91,23.34 -81.73,86.75 -107.13,119.26 -58.26,74.58 -107.71,150.48 -145.19,242.17 -67.02,163.95 -101.31,323.07 -101.31,512.43z"/>
   <path class="fil1" d="M18968.83 1689.75c0,359.36 60.02,592.12 351.14,785.8 186.88,124.32 304.42,154.01 515.98,223.54 91.14,29.95 192.47,52.38 288.06,84.21 131.37,43.74 206.04,78.66 300.21,157.59 51.36,43.05 99.1,107.01 99.1,182.62 0,77.37 -0.38,133.94 -45.19,201.31 -27.55,41.43 -55.45,69.59 -98.62,97.59 -240.95,156.29 -551.12,79.68 -786.91,-37.27l-96.53 -54.39c-33.02,-20.71 -61.57,-40.6 -93.66,-62.3 -29.83,-20.17 -57.97,-42.91 -85.8,-65.11 -14.22,-11.34 -28.22,-21.36 -42.03,-33.43 -13.29,-11.63 -30.68,-27.32 -44.16,-36.34 -16.9,31.94 -33.24,63 -50.24,95.65l-125.77 236.44c-9.11,17.5 -17,28.51 -26.91,48.55 -56.17,113.62 -142.8,267.3 -204.56,384.03 110.35,73.89 150.76,94.86 256.34,156.17 29.17,16.94 58.57,33.79 92.9,47.96 33.84,13.97 61.47,28.06 93.59,42.24 31.99,14.13 68.97,27.58 101.21,39.65 489.05,183.19 1133.06,188.53 1589.28,-84.5 59.84,-35.81 108.55,-71.17 162.27,-114.42 50.99,-41.05 99.41,-85.86 139.31,-137.37 192.22,-248.08 256.53,-529.69 256.53,-855.26 0,-232.18 -61.61,-454.51 -212.49,-617.58 -102.08,-110.34 -252.87,-201.21 -387.91,-266.08 -75.1,-36.09 -182.81,-79.92 -264.88,-102.36 -24.92,-6.82 -42.95,-13.87 -69.37,-21.19l-216.79 -64.93c-84.94,-26.96 -190.4,-59.72 -260.05,-112.22 -69.34,-52.25 -148.03,-127.31 -148.03,-224.24 0,-109.95 63.01,-192.12 152.55,-239.84 99.51,-53.04 175.23,-74.48 326.22,-62.39 216.83,17.37 364,93.44 524.54,214.5 12.56,9.47 16.99,14.97 27.98,22.33 32.14,-60.74 62.06,-119.07 93.91,-182.78l142.54 -275.01c15.73,-31.63 30.44,-60.88 46.95,-93.91 20.68,-41.36 87.96,-162.27 93.91,-187.82 -23.66,-5.51 -36.8,-17.65 -56.99,-28.53l-123.39 -57.71c-124.14,-50.81 -192.72,-76.69 -330.97,-116.77 -363.48,-105.38 -794.15,-143.88 -1154.55,1.06 -112.76,45.35 -242.13,120.61 -332.52,200.74 -56.18,49.8 -102.8,97.14 -149.7,157.17 -168.86,216.15 -246.5,474.08 -246.5,754.6z"/>
   <polygon class="fil1" points="16332.73,4215.17 18405.39,4215.17 18405.39,3415.29 17283.54,3415.29 17283.54,2791.48 18345.02,2791.48 18345.02,1986.57 17283.54,1986.57 17283.54,1382.88 18405.39,1382.88 18405.39,577.97 16332.73,577.97 "/>
   <path class="fil0" d="M14632.35 8415.82l0 -1136.94 -71.69 74.2c-124.2,124.2 -305.99,233.24 -478.64,275.96 -346.68,85.8 -711.12,20.85 -960.14,-228.17 -44.98,-44.98 -75.9,-73.58 -112.48,-129 -137.65,-208.59 -173.01,-361.17 -173.01,-636.92 0,-228.04 84.43,-445.57 216.97,-613.1 85.67,-108.3 206.53,-211.23 334.24,-264.41 58.42,-24.32 109.76,-44.98 177.77,-58.68 266.19,-53.61 497.81,-21.88 734.96,96.05 35.65,17.73 61.97,34.61 94.57,56.35 15.6,10.39 30.28,18.92 44.77,30.69 65.71,53.34 98.11,81.32 153.99,147.85l38.69 41.8 0 -1136.94c-21.87,-1.82 -72.91,-26.87 -96.2,-34.59 -33.44,-11.09 -61.52,-22.06 -96.85,-33.95 -478.04,-160.75 -996.23,-152.93 -1455.37,60.14 -16.71,7.75 -26.37,14.09 -44.02,21.37 -19.74,8.15 -31.69,12.98 -47.96,22.47 -135.13,78.76 -195.25,103.06 -330.67,212.65l-143.7 127.96c-70.68,70.68 -98.81,98.22 -161.31,175.75l-88.2 118.05c-167.38,224.8 -281.03,564.25 -308.11,843.93 -6.89,71.16 -5.09,141.77 -9.89,196.44 -12.44,141.55 17.98,370.36 46.57,492.24 59.01,251.5 148.63,453.31 297.19,653.62l190.95 216.53c13.75,13.6 21.76,16.83 35.42,29.99 225.06,216.78 523.45,388.5 824.76,473.15 133.85,37.61 304,71.16 471.97,71.35 29.12,0.03 34.23,4.51 60.1,5.43 30.37,1.08 41.51,-4.02 65.48,-5.28 134.77,-7.1 220.85,-17.92 357.2,-50.28l324.14 -83.35c37.64,-10.65 73.37,-24.18 108.5,-32.36z"/>
   <path class="fil0" d="M26082.26 6750.65l0 1735.6 945.77 0 0 -1735.6c0,-13.4 407.44,-577.67 458.79,-652.99l294.4 -414.93c29.82,-39.87 53.51,-78.05 83.32,-117.91l83.34 -117.89c111.81,-150.65 225.51,-325.27 336.41,-473.54 16.98,-22.69 77.03,-103.4 81.91,-124.35l-1131.91 0c-55.12,82.32 -112.21,160.63 -168.03,244.49 -14.93,22.43 -26.65,37.31 -41.28,59.34l-85.45 125.84c-15.71,22.67 -28.09,39.43 -43.3,62.34 -14.58,21.97 -26.42,36.93 -41.27,59.34l-211.29 306.88c-17.53,26.46 -78.16,107.81 -83.5,127.79l-10.06 0c-6.14,-22.99 -295.62,-433.07 -336.06,-494.01 -14.39,-21.69 -27.03,-39.4 -41.22,-59.38 -14.81,-20.86 -26.4,-41.29 -42.39,-63.26l-84.4 -121.86c-56.04,-84.3 -114.31,-164.28 -170.04,-247.51l-1131.91 0c6.59,28.31 116.8,171.5 142.91,209.24l231.38 327.03c14.75,21.37 26.55,38.32 41.84,58.77l229.85 323.53c8.73,12.61 13.75,21.44 22.34,33l336.4 473.54c29.82,39.86 53.51,78.05 83.33,117.91l63.03 87.88c24.65,36.39 187.09,260.09 187.09,270.71z"/>
   <path class="fil0" d="M14929.16 4864.13l0 789.83 784.79 0 0 2832.29 945.78 0 0 -2832.29 779.76 0 0 -804.92 -2495.23 0c-11.6,0 -15.1,3.5 -15.1,15.09z"/>
   <path class="fil1" d="M9234.4 593.06l0 789.82c98.21,0 748.08,-9.17 784.79,5.01l0 2827.28 945.77 0 0 -2827.28c36.6,-14.14 682.07,-5.01 779.76,-5.01l0 -804.91 -2495.23 0c-11.59,0 -15.09,3.5 -15.09,15.09z"/>
   <path class="fil1" d="M7956.59 4215.17l950.81 0 0 -3622.11c0,-11.59 -3.5,-15.09 -15.09,-15.09l-935.72 0 0 3637.2z"/>
   <path class="fil0" d="M21549.58 6700.84l-840.13 -0.49c2.93,82.13 -11.2,166.79 -26.59,234.68 -17.65,77.84 -38.02,129.67 -65.57,196.13 -33.43,80.64 -121.19,214.45 -182.73,275.28 -133.54,131.97 -178.32,167.6 -338.51,245.22 -263.86,127.86 -657.1,118.32 -901.49,-24.9 -14.44,-8.46 -27.19,-13.18 -42.91,-22.48 -142.27,-84.18 -242.29,-181.58 -337.16,-312 -20.36,-27.99 -31.69,-51.26 -49.55,-81.3 -16.41,-27.62 -30.75,-54.82 -42.43,-83.43 -54.71,-133.99 -96.26,-272.36 -90.74,-427.2l-845.16 0.49 -0.44 392.34c-0.34,31.08 -4.65,33.52 25.15,35.21 70.47,4.01 136.97,15.18 206.53,19.86l206.43 19.95c2.8,33.6 60.12,167.21 75.46,196.2 -21.23,31.71 -77.29,90.93 -102.74,123.64 -8.13,10.45 -11.12,12.03 -19.17,21.07l-90.12 106.09c-12.57,15.61 -23.24,26.36 -34.47,40.98 -14.88,19.36 -22.8,21.81 -35.22,45.28 17.24,32.58 150.73,158.63 189.95,197.41 16.24,16.05 22.22,27.37 37.59,42.9l386.21 393.56 342.09 -276.69c17.97,4.18 137.37,66.78 196.2,80.49 0,32.25 3.27,76.25 7.93,107.77 5.55,37.47 3.9,74.77 7.93,112.81 7.19,67.99 13.61,148.16 19.35,217.09 26.48,0 27.5,3.83 50.28,5.06 17.3,0.93 37.72,-0.02 55.37,-0.03 83.04,-0.02 271.62,-4.71 331.76,0.27 137.35,11.36 297.16,4.76 442.97,4.76l45.27 -437.67c33.6,-2.8 167.21,-60.12 196.2,-75.46 30.84,20.65 56.81,48.37 85.52,70.43l209.16 178.2c20.19,15.72 20.54,26.83 47.41,33.09l192.38 -189.95c16.05,-16.24 27.37,-22.22 42.9,-37.59l153.34 -153.54c27.95,-27.95 52.85,-47.77 80.49,-75.46l154.7 -157.21c-4.38,-16.41 -20.47,-31.78 -31.31,-44.15 -12.14,-13.86 -21.83,-27.91 -33.38,-42.08l-70.02 -85.93c-24.47,-27.99 -43.31,-55.64 -67.82,-83.11l-69.13 -86.82c4.23,-18.15 12.7,-30.07 20.19,-45.2 7.52,-15.19 14.05,-31.77 21.47,-48.97 12.34,-28.59 32.11,-73.16 38.83,-102.02 72.37,0 359.08,-28.68 437.67,-35.22 0,-36.49 5.04,-67.51 5.03,-110.67 -0.02,-80.44 -6.88,-307.97 5.03,-356.69z"/>
   <path class="fil1" d="M17786.61 6700.84l845.16 -0.49c-1.07,-173.22 52.5,-359.31 135.49,-503.4 15.39,-26.72 31.62,-56.61 49.76,-81.04 49.75,-67.01 63.88,-84.93 120.28,-141.33 22.23,-22.23 37.81,-39.86 64.48,-61.16 198.38,-158.5 400.38,-244.46 666.32,-244.45 340.61,0 661.39,164.32 851.27,441.71 10.78,15.76 15.58,21.51 26.31,39.09 24.01,39.32 51.31,83.47 69.73,126.49 49.48,115.62 95.02,260.35 94.04,424.09l840.13 0.49 0 -332.52c0.01,-88.39 9.09,-84.48 -29.77,-85.94 -100.89,-3.78 -323.35,-39.83 -407.9,-39.83 -2.4,-28.83 -57.07,-161.44 -75.46,-196.2l174.78 -207.55c8.9,-10.01 9.74,-12.73 17.89,-22.35 7.51,-8.87 12.24,-12.06 19.36,-20.9 17.93,-22.25 59.14,-66.32 69.69,-86.26 -17.24,-32.58 -150.73,-158.63 -189.95,-197.41 -16.24,-16.05 -22.22,-27.37 -37.59,-42.9 -26.97,-27.26 -50.89,-50.69 -78.08,-77.88l-308.13 -315.68 -255.41 207.42c-28.36,23.14 -57.52,49.75 -86.67,69.27 -18.16,-4.23 -30.08,-12.7 -45.21,-20.19l-150.99 -60.3 -15.39 -221.05c-5.28,-68.86 -14.06,-147.26 -19.83,-216.62 -26.11,0 -46.68,-5.17 -80.47,-5.05l-593.64 -5.01c-241.63,0 -206.9,-14.83 -212.2,44.37 -7.94,88.62 -39.34,330.28 -39.34,393.3 -33.6,2.8 -167.21,60.12 -196.2,75.46l-123.64 -102.74c-10.42,-8.14 -12.04,-11.13 -21.07,-19.17 -10.01,-8.92 -12.46,-8.86 -22.48,-17.77 -14.75,-13.15 -25.68,-22.03 -40.36,-35.1 -10,-8.9 -12.73,-9.74 -22.36,-17.89 -8.86,-7.51 -12.05,-12.24 -20.88,-19.36 -22.26,-17.93 -66.33,-59.14 -86.27,-69.69 -49.01,32.82 -142.45,134.62 -194.93,187.4 -7.53,7.57 -12.33,13.18 -20.17,20.08 -93.04,81.94 -147.01,148.07 -238.88,228.97l-174.85 177.3c6.3,23.62 206.12,257.9 236.47,296.77 11.03,14.13 22.13,29.45 35.18,45.32l-41.65 94.17c-12.35,28.59 -32.11,73.17 -38.84,102.02 -58.55,0 -370.83,29.66 -437.67,35.22 0,36.49 -5.04,67.51 -5.03,110.68 0.02,66.28 6.75,321.67 -5.03,347.61z"/>
   <path class="fil1" d="M20709.45 6700.35l-166.01 0c0,485.79 -391.54,880.37 -875.34,880.37 -483.67,0 -875.35,-395.18 -875.35,-880.37l-160.98 0c-5.52,154.84 36.03,293.21 90.74,427.2 11.68,28.61 26.02,55.81 42.43,83.43 17.86,30.04 29.19,53.31 49.55,81.3 94.87,130.42 194.89,227.82 337.16,312 15.72,9.3 28.47,14.02 42.91,22.48 244.39,143.22 637.63,152.76 901.49,24.9 160.19,-77.62 204.97,-113.25 338.51,-245.22 61.54,-60.83 149.3,-194.64 182.73,-275.28 27.55,-66.46 47.92,-118.29 65.57,-196.13 15.39,-67.89 29.52,-152.55 26.59,-234.68z"/>
   <path class="fil0" d="M18631.77 6700.35l160.98 0c0,-174.5 61.85,-360.24 155.97,-493 224.78,-317.1 620.12,-456.65 995.43,-331.4 350.92,117.11 599.29,452.24 599.29,824.4l166.01 0c0.98,-163.74 -44.56,-308.47 -94.04,-424.09 -18.42,-43.02 -45.72,-87.17 -69.73,-126.49 -10.73,-17.58 -15.53,-23.33 -26.31,-39.09 -189.88,-277.39 -510.66,-441.71 -851.27,-441.71 -265.94,-0.01 -467.94,85.95 -666.32,244.45 -26.67,21.3 -42.25,38.93 -64.48,61.16 -56.4,56.4 -70.53,74.32 -120.28,141.33 -18.14,24.43 -34.37,54.32 -49.76,81.04 -82.99,144.09 -136.56,330.18 -135.49,503.4z"/>
  </g>
 </g>
</svg>
