<?xml version="1.0" encoding="UTF-8"?>
<!DOCTYPE svg PUBLIC "-//W3C//DTD SVG 1.1//EN" "http://www.w3.org/Graphics/SVG/1.1/DTD/svg11.dtd">
<!-- Creator: CorelDRAW 2020 (64-Bit) -->
<svg xmlns="http://www.w3.org/2000/svg" xml:space="preserve" width="210mm" height="297mm" version="1.1" style="shape-rendering:geometricPrecision; text-rendering:geometricPrecision; image-rendering:optimizeQuality; fill-rule:evenodd; clip-rule:evenodd"
viewBox="0 0 21000 29700"
 xmlns:xlink="http://www.w3.org/1999/xlink"
 xmlns:xodm="http://www.corel.com/coreldraw/odm/2003">
 <defs>
  <style type="text/css">
   <![CDATA[
    .fil0 {fill:#FEFEFE}
    .fil1 {fill:#FED100}
   ]]>
  </style>
 </defs>
 <g id="Layer_x0020_1">
  <metadata id="CorelCorpID_0Corel-Layer"/>
  <path class="fil0" d="M-98889.43 109103.96l0 55491.95 14499.17 0 0 -21801.67 15839.73 0 0 -12170.84c0,-81.28 -24.55,-105.83 -105.84,-105.83l-15733.89 0 0 -9242.78 17462.5 0 0 -12170.83c0,-81.29 -24.54,-105.84 -105.83,-105.84l-31750.01 0c-81.28,0 -105.83,24.55 -105.83,105.84z"/>
  <path class="fil1" d="M-34683.86 134645.07l6667.5 0 0 -15592.78c185.18,143.68 1078.01,1360.91 1329.59,1669.03l570.53 734.74c66.29,88.98 118.23,152.3 186.13,237.2l382.81 499.14c68.76,89.97 127.19,155.9 201.94,256.67l755.83 972.79c706.72,948.64 1568.55,1978.41 2283.29,2937.81l2081.41 2681.1c67.9,84.9 119.85,148.22 186.13,237.2 126.87,170.3 255.3,327.92 388.04,493.91l3220.3 4152.75c76.15,97.52 129.89,160.6 201.66,256.95l274.73 360.27c42.18,53.33 50.78,103.22 143.73,103.22l6596.94 0 0 -25505.84 -6561.67 0c-153.67,0 -108.67,189.05 -106.47,352.15 32.16,2384.43 0.64,4982.17 0.64,7373.69 0,2622.31 0,5244.63 0,7866.94 -132.01,-88.39 -280.28,-334.78 -383.19,-463.47 -613.13,-766.66 -1295.02,-1698.91 -1901.78,-2437.39l-5128.23 -6584c-71.74,-89.71 -123.59,-169.13 -198.65,-259.96l-2285.76 -2935.34c-133.87,-177.97 -251.52,-317.76 -388.61,-493.34l-1138.92 -1471.64c-87.01,-108.8 -669.6,-947.64 -816.25,-947.64l-6561.67 0 0 25505.84z"/>
  <path class="fil0" d="M42680.32 150520.07l-776.11 0 0 -6314.72c1403.69,0 2755.65,-5.17 3901.74,684.38 952.03,572.79 1284.1,1449.06 1284.1,2596.46 0,579.54 -168.66,1086.52 -385.93,1448.52 -746.36,1243.51 -2458.75,1585.36 -4023.8,1585.36zm-7443.61 14075.84l6667.5 0 0 -9771.95c102.99,68.97 148.5,171.38 213.34,280.55 487.27,820.5 1229.15,1883.02 1747.33,2732.95l2730.92 4289.36c268.89,403.91 516.67,812.1 783.24,1227.6 93.48,145.69 731.57,1100.03 769.34,1241.49l8290.28 0 -7972.78 -10442.22c244.85,-5.46 967.57,-228.01 1203.96,-312.99 1077.93,-387.53 2016.49,-1061.53 2716.51,-1940.16 228.79,-287.17 420.17,-571.59 615.61,-901.33 580.86,-979.96 1002.53,-2407.88 1002.53,-3654.14 0,-1570.86 -86.32,-2853.83 -752.16,-4186.72 -1449.11,-2900.81 -4667.05,-4068.28 -8243.67,-4068.28l-9771.95 0 0 25505.84z"/>
  <path class="fil0" d="M-50382.47 146992.3l2696.81 8073.37 -5448.48 5.24c85.51,-367.04 1200.65,-3584.13 1353.87,-4043.64l1023.05 -3033.89c51.08,-153.19 252.34,-911.4 374.75,-1001.08zm-13405.56 17603.61l7055.55 0 428.38 -1088.57c144.07,-360.48 303.71,-726.85 440.37,-1111.85 132.55,-373.41 291.36,-734.84 431.49,-1085.46 72.39,-181.14 417.57,-993.96 428.38,-1123.84l9136.94 0 1622.78 4409.72 7090.84 0c-10.67,-128.22 -496.17,-1371.4 -584.71,-1602.52 -208.64,-544.57 -390.91,-1042.53 -599.72,-1587.5l-8270.02 -21963.05c-45.28,-115.29 -79.93,-352.77 -211.67,-352.77l-7090.83 0c-129.85,0 -278.25,519.53 -358.05,735.57l-921.85 2394.25c-827.96,2058.75 -1632.25,4277.79 -2449.03,6370.43l-3694.3 9605.42c-409.23,1075.96 -827.54,2108.41 -1225.1,3184.62l-1229.45 3215.55z"/>
  <path class="fil1" d="M34390.04 116935.62c0,2519.99 420.9,4152.24 2462.41,5510.38 2195.18,1460.38 4277.44,1567.53 6553.85,2512.54l840.69 464.59 520.76 431.74c495.83,592.56 523.13,805.01 523.13,1522.98 0,1315.51 -1302.17,2070.08 -2493.71,2268.79 -1374.92,229.28 -2872.77,-246.73 -4032.94,-822.14 -661.99,-328.32 -1688.48,-1035.74 -2230.11,-1509.34 -93.2,-81.5 -215.15,-191.54 -309.63,-254.81 -118.52,223.99 -233.15,441.8 -352.32,670.74l-881.94 1658.05c-63.89,122.73 -119.28,199.9 -188.75,340.43 -393.91,796.8 -1001.38,1874.46 -1434.49,2693 773.85,518.2 1057.19,665.21 1797.6,1095.18 204.53,118.78 410.7,236.96 651.45,336.32 237.33,97.95 431.05,196.75 656.31,296.2 224.37,99.05 483.65,193.36 709.73,278.05 458.11,171.6 1002.13,337.09 1483.55,456.72 3684.8,915.71 7802.18,561.25 10799.14,-1851.63 357.57,-287.88 697.13,-602.15 976.96,-963.32 1347.91,-1739.65 1798.87,-3714.47 1798.87,-5997.52 0,-1624.32 -429.86,-3184.91 -1490.04,-4330.79 -715.85,-773.71 -1773.31,-1410.97 -2720.23,-1865.88 -1821.2,-874.94 -4726.69,-1384.29 -5687.77,-2108.62 -338.89,-255.4 -751.86,-617.71 -913.37,-1026.91 -225.62,-571.59 -110.89,-1158.67 202.11,-1594.6 620.78,-864.58 1861.6,-1163.97 3030.56,-1070.34 1520.55,121.79 2552.57,655.26 3678.36,1504.19 88.07,66.4 119.15,104.96 196.22,156.56l2328.59 -4515.29c78.9,-159.09 279.96,-510.51 317.24,-670.54 -165.88,-38.65 -258.01,-123.8 -399.64,-200.08 -2098.02,-1129.99 -5290.81,-1881.31 -7643.7,-1881.31 -2355.24,0 -4478.7,695.02 -6111.46,2214.09 -72.06,67.04 -86.22,65 -157.58,124.64 -195.76,163.64 -573.14,608.29 -751.23,836.27 -408.58,523 -755.37,1055.27 -1018.18,1698.21 -469.99,1149.74 -710.44,2265.52 -710.44,3593.45z"/>
  <path class="fil1" d="M13576.15 116935.62c0,2519.99 420.9,4152.24 2462.4,5510.38 1310.45,871.8 2134.73,1080.02 3618.27,1567.57 639.13,210.04 1349.74,367.3 2020.04,590.51 921.19,306.76 1444.87,551.59 2105.21,1105.08 360.19,301.91 694.92,750.45 694.92,1280.63 0,542.6 -2.66,939.26 -316.88,1411.73 -193.19,290.49 -388.87,487.96 -691.55,684.29 -1689.66,1096.01 -3864.72,558.77 -5518.23,-261.31l-676.93 -381.4c-231.55,-145.28 -431.76,-284.74 -656.73,-436.88 -209.24,-141.49 -406.57,-300.91 -601.72,-456.61 -99.67,-79.51 -197.87,-149.76 -294.72,-234.45 -93.21,-81.5 -215.15,-191.54 -309.63,-254.81 -118.53,223.99 -233.15,441.8 -352.32,670.74l-881.95 1658.05c-63.88,122.73 -119.27,199.9 -188.74,340.43 -393.91,796.8 -1001.38,1874.46 -1434.5,2693 773.86,518.2 1057.2,665.21 1797.61,1095.18 204.53,118.78 410.7,236.96 651.45,336.32 237.33,97.95 431.05,196.75 656.31,296.2 224.36,99.05 483.65,193.36 709.72,278.05 3429.48,1284.61 7945.55,1322.04 11144.78,-592.55 419.67,-251.15 761.23,-499.08 1137.92,-802.36 357.57,-287.88 697.12,-602.15 976.96,-963.32 1347.91,-1739.65 1798.87,-3714.47 1798.87,-5997.52 0,-1628.12 -432.02,-3187.24 -1490.05,-4330.79 -715.84,-773.71 -1773.3,-1410.97 -2720.22,-1865.88 -526.65,-253.02 -1281.96,-560.37 -1857.51,-717.78 -174.74,-47.78 -301.17,-97.22 -486.41,-148.58l-1520.26 -455.3c-595.63,-189.05 -1335.14,-418.83 -1823.6,-786.96 -486.2,-366.43 -1038.06,-892.78 -1038.06,-1572.49 0,-771.02 441.87,-1347.22 1069.78,-1681.88 697.81,-371.93 1228.81,-522.28 2287.58,-437.48 1520.56,121.79 2552.57,655.26 3678.37,1504.19 88.06,66.4 119.15,104.96 196.21,156.56 225.37,-425.92 435.2,-834.96 658.52,-1281.76l999.57 -1928.49c110.3,-221.82 213.42,-426.94 329.23,-658.55 145,-290 616.78,-1137.9 658.52,-1317.03 -165.88,-38.65 -258.01,-123.8 -399.65,-200.08l-865.27 -404.73c-870.52,-356.26 -1351.45,-537.75 -2320.91,-818.82 -2548.9,-738.97 -5568.95,-1008.98 -8096.23,7.41 -790.75,318.01 -1697.94,845.82 -2331.77,1407.67 -393.99,349.23 -720.95,681.22 -1049.79,1102.16 -1184.16,1515.8 -1728.61,3324.47 -1728.61,5291.66z"/>
  <polygon class="fil1" points="-4909.41,134645.07 9625.04,134645.07 9625.04,129035.9 1758.09,129035.9 1758.09,124661.46 9201.71,124661.46 9201.71,119017.01 1758.09,119017.01 1758.09,114783.68 9625.04,114783.68 9625.04,109139.23 -4909.41,109139.23 "/>
  <path class="fil0" d="M-16833.3 164102.02l0 -7972.78 -502.71 520.35c-870.96,870.97 -2145.76,1635.58 -3356.46,1935.2 -2431.07,601.64 -4986.71,146.21 -6732.99,-1600.06 -315.4,-315.41 -532.27,-516.02 -788.72,-904.61 -965.33,-1462.72 -1213.29,-2532.72 -1213.29,-4466.43 0,-1599.08 592.11,-3124.55 1521.5,-4299.34 600.79,-759.43 1448.34,-1481.25 2343.91,-1854.15 409.65,-170.58 769.68,-315.45 1246.55,-411.5 1866.7,-375.97 3490.89,-153.4 5153.9,673.57 250.03,124.33 434.58,242.67 663.22,395.11 109.34,72.9 212.28,132.71 313.94,215.23 460.78,374.02 687.95,570.24 1079.85,1036.82l271.3 293.14 0 -7972.78c-153.36,-12.76 -511.29,-188.42 -674.63,-242.59 -234.45,-77.76 -431.36,-154.71 -679.17,-238.05 -3352.22,-1127.3 -6986.03,-1072.47 -10205.73,421.68 -117.19,54.38 -184.89,98.82 -308.69,149.91 -138.41,57.11 -222.2,91.02 -336.34,157.55 -947.54,552.32 -1369.14,722.72 -2318.8,1491.2l-1007.69 897.32c-495.61,495.61 -692.86,688.75 -1131.18,1232.43l-618.52 827.86c-1173.74,1576.35 -1970.67,3956.78 -2160.57,5918.05 -48.32,499 -35.7,994.15 -69.38,1377.47 -87.22,992.62 126.06,2597.19 326.59,3451.84 413.79,1763.65 1042.24,3178.82 2084.01,4583.49l1339.06 1518.44c96.38,95.37 152.58,118.02 248.35,210.27 1578.24,1520.21 3670.73,2724.39 5783.67,3317.99 938.62,263.7 2131.73,499 3309.67,500.33 204.16,0.23 240.03,31.64 421.44,38.11 212.94,7.58 291.05,-28.21 459.14,-37.06 945.13,-49.76 1548.74,-125.64 2504.89,-352.61l2273.04 -584.46c263.9,-74.66 514.5,-169.55 760.84,-226.94z"/>
  <path class="fil0" d="M63458.94 152425.07l0 12170.84 6632.22 0 0 -12170.84c0,-93.94 2857.15,-4050.94 3217.27,-4579.12l2064.47 -2909.69c209.09,-279.52 375.21,-547.3 584.3,-826.82l584.42 -826.69c784.04,-1056.42 1581.34,-2280.97 2359.06,-3320.66 119.05,-159.15 540.14,-725.09 574.37,-872.02l-7937.5 0c-386.56,577.28 -786.9,1126.4 -1178.31,1714.47 -104.67,157.27 -186.87,261.65 -289.45,416.11l-599.22 882.44c-110.15,158.96 -196.99,276.5 -303.63,437.2 -102.24,154.06 -185.29,258.94 -289.43,416.13l-1481.67 2151.95c-122.93,185.55 -548.1,756.02 -585.51,896.15l-70.56 0c-43.06,-161.26 -2073.05,-3036.93 -2356.61,-3464.23 -100.92,-152.09 -189.57,-276.3 -289.1,-416.45 -103.84,-146.22 -185.08,-289.53 -297.23,-443.6l-591.88 -854.51c-392.96,-591.13 -801.59,-1152.03 -1192.4,-1735.66l-7937.5 0c46.24,198.49 819.07,1202.65 1002.18,1467.27l1622.54 2293.29c103.44,149.85 186.15,268.76 293.41,412.15l1611.82 2268.73c61.2,88.43 96.44,150.35 156.62,231.44l2359.06 3320.66c209.09,279.52 375.21,547.3 584.3,826.82l442.05 616.27c172.79,255.17 1311.91,1823.91 1311.91,1898.37z"/>
  <path class="fil0" d="M-14751.91 139195.91l0 5538.61 5503.33 0 0 19861.39 6632.23 0 0 -19861.39 5468.05 0 0 -5644.45 -17497.78 0c-81.28,0 -105.83,24.55 -105.83,105.84z"/>
  <path class="fil1" d="M-54686.36 109245.07l0 5538.61c688.7,0 5245.95,-64.31 5503.33,35.1l0 19826.29 6632.22 0 0 -19826.29c256.68,-99.14 4782.99,-35.1 5468.06,-35.1l0 -5644.45 -17497.78 0c-81.29,0 -105.83,24.55 -105.83,105.84z"/>
  <path class="fil1" d="M-63646.92 134645.07l6667.5 0 0 -25400c0,-81.29 -24.55,-105.84 -105.83,-105.84l-6561.67 0 0 25505.84z"/>
  <path class="fil0" d="M31673.65 152075.78l-5891.39 -3.48c20.49,575.97 -78.58,1169.66 -186.5,1645.73 -123.74,545.83 -266.58,909.32 -459.77,1375.35 -234.42,565.47 -849.85,1503.85 -1281.44,1930.39 -936.43,925.47 -1250.42,1175.31 -2373.77,1719.63 -1850.32,896.57 -4607.88,829.72 -6321.65,-174.6 -101.26,-59.34 -190.69,-92.44 -300.94,-157.67 -997.68,-590.32 -1699.04,-1273.31 -2364.35,-2187.92 -142.77,-196.27 -222.2,-359.46 -347.41,-570.12 -115.1,-193.66 -215.69,-384.42 -297.59,-585.04 -383.65,-939.62 -675,-1909.87 -636.3,-2995.75l-5926.67 3.48 -3.1 2751.29c-2.38,217.92 -32.62,235.04 176.41,246.91 494.13,28.07 960.45,106.43 1448.24,139.27l1447.62 139.88c19.61,235.63 421.59,1172.54 529.17,1375.83 -148.9,222.36 -542,637.63 -720.48,867.03 -57,73.27 -77.96,84.4 -134.43,147.79l-631.94 743.9c-88.19,109.46 -162.96,184.85 -241.77,287.4 -104.32,135.75 -159.87,152.94 -246.94,317.5 120.9,228.49 1057.01,1112.42 1332.04,1384.34 113.88,112.59 155.8,191.93 263.59,300.86l2708.26 2759.8 2398.89 -1940.28c126.02,29.36 963.3,468.33 1375.83,564.44 0,226.16 22.93,534.71 55.67,755.72 38.92,262.78 27.33,524.36 55.55,791.12 50.44,476.75 95.5,1038.98 135.73,1522.33 185.69,0 192.87,26.83 352.6,35.45 121.31,6.55 264.48,-0.14 388.23,-0.17 582.32,-0.15 1904.73,-33.05 2326.48,1.85 963.2,79.72 2083.86,33.43 3106.3,33.43l317.5 -3069.17c235.63,-19.61 1172.54,-421.6 1375.83,-529.17 216.27,144.82 398.37,339.2 599.72,493.89l1466.75 1249.64c141.53,110.24 144.03,188.14 332.42,232.03l1349.07 -1332.05c112.59,-113.87 191.92,-155.79 300.86,-263.58l1075.28 -1076.66c195.97,-195.99 370.62,-335.02 564.45,-529.17l1084.79 -1102.43c-30.73,-115.06 -143.51,-222.9 -219.53,-309.64 -85.16,-97.16 -153.11,-195.69 -234.07,-295.1l-491.03 -602.58c-171.63,-196.27 -303.72,-390.17 -475.57,-582.76l-484.8 -608.81c29.65,-127.29 89.1,-210.88 141.62,-316.99 52.73,-106.55 98.47,-222.79 150.51,-343.38 86.54,-200.53 225.16,-513.09 272.31,-715.46 507.51,0 2518.04,-201.09 3069.17,-246.95 0,-255.88 35.36,-473.43 35.28,-776.11 -0.15,-564.04 -48.26,-2159.63 35.27,-2501.24z"/>
  <path class="fil1" d="M5285.87 152075.78l5926.67 -3.48c-7.48,-1214.7 368.15,-2519.65 950.1,-3530.03 107.92,-187.38 221.79,-397.02 348.98,-568.32 348.86,-469.88 447.97,-595.55 843.47,-991.05 155.89,-155.89 265.15,-279.51 452.11,-428.89 1391.14,-1111.47 2807.66,-1714.25 4672.56,-1714.23 2388.57,0.02 4638.01,1152.29 5969.54,3097.54 75.6,110.46 109.24,150.81 184.52,274.11 168.32,275.67 359.79,585.28 488.93,886.99 347.02,810.79 666.36,1825.72 659.51,2973.88l5891.39 3.48 0 -2331.82c0.07,-619.8 63.75,-592.41 -208.76,-602.62 -707.54,-26.52 -2267.52,-279.32 -2860.4,-279.32 -16.83,-202.2 -400.21,-1132.12 -529.17,-1375.83l1225.63 -1455.49c62.44,-70.13 68.29,-89.22 125.48,-156.73 52.67,-62.17 85.84,-84.57 135.73,-146.5 125.75,-156.08 414.74,-465.08 488.72,-604.9 -120.91,-228.49 -1057.01,-1112.42 -1332.05,-1384.34 -113.88,-112.59 -155.79,-191.93 -263.58,-300.86 -189.15,-191.17 -356.86,-355.48 -547.5,-546.12l-2160.76 -2213.68 -1791.06 1454.5c-198.87,162.28 -403.4,348.89 -607.83,485.78 -127.29,-29.65 -210.88,-89.1 -317,-141.62l-1058.84 -422.82 -107.92 -1550.14c-36.99,-482.85 -98.54,-1032.62 -139.02,-1519.03 -183.11,0 -327.37,-36.26 -564.34,-35.38l-4162.88 -35.18c-1694.37,0 -1450.85,-103.98 -1488.04,311.14 -55.67,621.47 -275.85,2316.1 -275.85,2758.03 -235.63,19.61 -1172.54,421.6 -1375.84,529.17l-867.05 -720.45c-73.06,-57.08 -84.44,-78.06 -147.76,-134.46 -70.2,-62.54 -87.39,-62.09 -157.6,-124.63 -103.46,-92.16 -180.1,-154.43 -283.07,-246.09 -70.13,-62.44 -89.22,-68.29 -156.74,-125.49 -62.16,-52.66 -84.56,-85.83 -146.49,-135.73 -156.08,-125.74 -465.08,-414.73 -604.9,-488.71 -343.71,230.16 -998.99,943.99 -1366.98,1314.13 -52.77,53.08 -86.46,92.42 -141.41,140.81 -652.49,574.58 -1030.94,1038.37 -1675.16,1605.68l-1226.17 1243.27c44.22,165.62 1445.45,1808.54 1658.29,2081.13 77.35,99.06 155.15,206.5 246.71,317.76l-292.13 660.37c-86.54,200.53 -225.17,513.09 -272.32,715.46 -410.61,0 -2600.46,207.95 -3069.16,246.95 0,255.88 -35.36,473.43 -35.28,776.11 0.12,464.85 47.33,2255.73 -35.28,2437.65z"/>
  <path class="fil1" d="M25782.26 152072.3l-1164.16 0.06c0,3406.55 -2745.7,6173.58 -6138.34,6173.58 -3391.71,0 -6138.33,-2771.25 -6138.33,-6173.58l-1128.89 -0.06c-38.7,1085.88 252.65,2056.13 636.3,2995.75 81.9,200.62 182.49,391.38 297.59,585.04 125.21,210.66 204.64,373.85 347.41,570.12 665.31,914.61 1366.67,1597.6 2364.35,2187.92 110.25,65.23 199.68,98.33 300.94,157.67 1713.77,1004.32 4471.33,1071.17 6321.65,174.6 1123.35,-544.32 1437.34,-794.16 2373.77,-1719.63 431.59,-426.54 1047.02,-1364.92 1281.44,-1930.39 193.19,-466.03 336.03,-829.52 459.77,-1375.35 107.92,-476.07 206.99,-1069.76 186.5,-1645.73z"/>
  <path class="fil0" d="M11212.54 152072.3l1128.89 0.06c0,-1223.73 433.74,-2526.22 1093.69,-3457.2 1576.32,-2223.66 4348.63,-3202.2 6980.43,-2323.93 2460.86,821.22 4202.55,3171.35 4202.55,5781.13l1164.16 -0.06c6.85,-1148.16 -312.49,-2163.09 -659.51,-2973.88 -129.14,-301.71 -320.61,-611.32 -488.93,-886.99 -75.28,-123.3 -108.92,-163.65 -184.52,-274.11 -1331.53,-1945.25 -3580.97,-3097.52 -5969.54,-3097.54 -1864.9,-0.02 -3281.42,602.76 -4672.56,1714.23 -186.96,149.38 -296.22,273 -452.11,428.89 -395.5,395.5 -494.61,521.17 -843.47,991.05 -127.19,171.3 -241.06,380.94 -348.98,568.32 -581.95,1010.38 -957.58,2315.33 -950.1,3530.03z"/>
 </g>
</svg>
